<?xml version="1.0" standalone="no"?>
<!DOCTYPE svg PUBLIC "-//W3C//DTD SVG 20010904//EN"
 "http://www.w3.org/TR/2001/REC-SVG-20010904/DTD/svg10.dtd">
<svg version="1.0" xmlns="http://www.w3.org/2000/svg"
 width="256.000000pt" height="256.000000pt" viewBox="0 0 256.000000 256.000000"
 preserveAspectRatio="xMidYMid meet">
<metadata>
Created by potrace 1.14, written by Peter Selinger 2001-2017
</metadata>
<g transform="translate(0.000000,256.000000) scale(0.100000,-0.100000)"
fill="#000000" stroke="none">
<path d="M1051 1855 c-138 -65 -327 -331 -437 -614 -25 -66 -29 -71 -37 -50
-29 77 -39 91 -74 105 -26 11 -46 13 -66 7 -49 -14 -53 -31 -34 -130 10 -48
23 -169 29 -268 10 -180 11 -180 39 -207 36 -34 89 -38 116 -9 10 11 38 66 62
123 160 374 251 555 362 718 64 95 116 150 106 115 -41 -146 -103 -818 -83
-898 7 -30 62 -67 100 -67 42 0 66 33 155 209 96 190 172 317 247 416 69 91
151 181 157 175 3 -3 -11 -68 -30 -145 -33 -130 -36 -151 -37 -300 -1 -149 1
-164 23 -213 54 -119 196 -180 333 -142 94 27 192 149 192 241 0 54 -23 96
-59 105 -33 8 -43 0 -69 -60 -38 -86 -107 -120 -164 -80 -61 43 -67 135 -22
369 35 183 39 301 12 355 -23 47 -89 80 -159 80 -126 0 -234 -95 -387 -342
-26 -43 -49 -78 -51 -78 -2 0 6 39 17 88 10 48 26 116 33 152 22 100 19 214
-6 268 -46 94 -162 128 -268 77z"/>
</g>
</svg>
